<mxfile host="app.diagrams.net" modified="2023-07-23T07:46:22.573Z" agent="Mozilla/5.0 (Windows NT 10.0; Win64; x64) AppleWebKit/537.36 (KHTML, like Gecko) Chrome/115.0.0.0 Safari/537.36 Edg/115.0.1901.183" version="21.6.5" etag="sg4flrja2bgTNlNul2-h" type="github">
  <diagram name="Page-1" id="Z7TDZD0qhuriz4g45tID">
    <mxGraphModel>
      <root>
        <mxCell id="0" />
        <mxCell id="1" parent="0" />
      </root>
    </mxGraphModel>
  </diagram>
</mxfile>
